STARTFONT 2.1
FONT -t-cherry-Bold-R-Normal--13-120-96-96-C-100-ISO10646-1
SIZE 12 96 96
FONTBOUNDINGBOX 7 13 0 -2
STARTPROPERTIES 14
POINT_SIZE 120
PIXEL_SIZE 13
RESOLUTION_X 96
RESOLUTION_Y 96
FONT_ASCENT 11
FONT_DESCENT 2
AVERAGE_WIDTH 100
SPACING "C"
FOUNDRY "t"
FAMILY_NAME "cherry"
CHARSET_ENCODING "1"
CHARSET_REGISTRY "ISO10646"
WEIGHT_NAME "Bold"
_GBDFED_INFO "Edited with gbdfed 1.6."
ENDPROPERTIES
CHARS 192
STARTCHAR <control>
ENCODING 0
SWIDTH 437 0
DWIDTH 7 0
BBX 7 13 0 -2
BITMAP
00
00
00
00
00
00
00
00
00
00
00
00
00
ENDCHAR
STARTCHAR SPACE
ENCODING 32
SWIDTH 437 0
DWIDTH 7 0
BBX 7 13 0 -2
BITMAP
00
00
00
00
00
00
00
00
00
00
00
00
00
ENDCHAR
STARTCHAR EXCLAMATION MARK
ENCODING 33
SWIDTH 437 0
DWIDTH 7 0
BBX 7 13 0 -2
BITMAP
00
00
18
18
18
18
18
18
00
18
18
00
00
ENDCHAR
STARTCHAR QUOTATION MARK
ENCODING 34
SWIDTH 437 0
DWIDTH 7 0
BBX 7 13 0 -2
BITMAP
00
00
6C
6C
6C
00
00
00
00
00
00
00
00
ENDCHAR
STARTCHAR NUMBER SIGN
ENCODING 35
SWIDTH 437 0
DWIDTH 7 0
BBX 7 13 0 -2
BITMAP
00
00
28
7C
7C
28
28
7C
7C
28
28
00
00
ENDCHAR
STARTCHAR DOLLAR SIGN
ENCODING 36
SWIDTH 437 0
DWIDTH 7 0
BBX 7 13 0 -2
BITMAP
00
00
10
38
74
70
30
18
14
74
38
10
00
ENDCHAR
STARTCHAR PERCENT SIGN
ENCODING 37
SWIDTH 437 0
DWIDTH 7 0
BBX 7 13 0 -2
BITMAP
00
00
64
6C
68
18
10
30
2C
6C
4C
00
00
ENDCHAR
STARTCHAR AMPERSAND
ENCODING 38
SWIDTH 437 0
DWIDTH 7 0
BBX 7 13 0 -2
BITMAP
00
00
30
68
68
30
30
6A
6A
64
3A
00
00
ENDCHAR
STARTCHAR APOSTROPHE
ENCODING 39
SWIDTH 437 0
DWIDTH 7 0
BBX 7 13 0 -2
BITMAP
00
00
18
10
20
00
00
00
00
00
00
00
00
ENDCHAR
STARTCHAR LEFT PARENTHESIS
ENCODING 40
SWIDTH 437 0
DWIDTH 7 0
BBX 7 13 0 -2
BITMAP
00
04
08
08
18
18
18
18
18
08
08
04
00
ENDCHAR
STARTCHAR RIGHT PARENTHESIS
ENCODING 41
SWIDTH 437 0
DWIDTH 7 0
BBX 7 13 0 -2
BITMAP
00
40
20
20
30
30
30
30
30
20
20
40
00
ENDCHAR
STARTCHAR ASTERISK
ENCODING 42
SWIDTH 437 0
DWIDTH 7 0
BBX 7 13 0 -2
BITMAP
00
00
00
00
10
54
7C
38
7C
54
10
00
00
ENDCHAR
STARTCHAR PLUS SIGN
ENCODING 43
SWIDTH 437 0
DWIDTH 7 0
BBX 7 13 0 -2
BITMAP
00
00
00
00
18
18
7E
7E
18
18
00
00
00
ENDCHAR
STARTCHAR COMMA
ENCODING 44
SWIDTH 437 0
DWIDTH 7 0
BBX 7 13 0 -2
BITMAP
00
00
00
00
00
00
00
00
00
18
10
20
00
ENDCHAR
STARTCHAR HYPHEN-MINUS
ENCODING 45
SWIDTH 437 0
DWIDTH 7 0
BBX 7 13 0 -2
BITMAP
00
00
00
00
00
00
7E
7E
00
00
00
00
00
ENDCHAR
STARTCHAR FULL STOP
ENCODING 46
SWIDTH 437 0
DWIDTH 7 0
BBX 7 13 0 -2
BITMAP
00
00
00
00
00
00
00
00
00
18
18
00
00
ENDCHAR
STARTCHAR SOLIDUS
ENCODING 47
SWIDTH 437 0
DWIDTH 7 0
BBX 7 13 0 -2
BITMAP
00
06
06
0C
0C
18
18
18
30
30
60
60
00
ENDCHAR
STARTCHAR DIGIT ZERO
ENCODING 48
SWIDTH 437 0
DWIDTH 7 0
BBX 7 13 0 -2
BITMAP
00
00
3C
66
66
6E
76
66
66
66
3C
00
00
ENDCHAR
STARTCHAR DIGIT ONE
ENCODING 49
SWIDTH 437 0
DWIDTH 7 0
BBX 7 13 0 -2
BITMAP
00
00
18
38
58
18
18
18
18
18
18
00
00
ENDCHAR
STARTCHAR DIGIT TWO
ENCODING 50
SWIDTH 437 0
DWIDTH 7 0
BBX 7 13 0 -2
BITMAP
00
00
3C
66
66
04
08
10
20
7E
7E
00
00
ENDCHAR
STARTCHAR DIGIT THREE
ENCODING 51
SWIDTH 437 0
DWIDTH 7 0
BBX 7 13 0 -2
BITMAP
00
00
3C
66
06
06
1C
06
06
66
3C
00
00
ENDCHAR
STARTCHAR DIGIT FOUR
ENCODING 52
SWIDTH 437 0
DWIDTH 7 0
BBX 7 13 0 -2
BITMAP
00
00
0C
1C
1C
2C
2C
4C
7E
0C
0C
00
00
ENDCHAR
STARTCHAR DIGIT FIVE
ENCODING 53
SWIDTH 437 0
DWIDTH 7 0
BBX 7 13 0 -2
BITMAP
00
00
7E
60
60
60
7C
06
06
06
7C
00
00
ENDCHAR
STARTCHAR DIGIT SIX
ENCODING 54
SWIDTH 437 0
DWIDTH 7 0
BBX 7 13 0 -2
BITMAP
00
00
3C
60
60
60
7C
66
66
66
3C
00
00
ENDCHAR
STARTCHAR DIGIT SEVEN
ENCODING 55
SWIDTH 437 0
DWIDTH 7 0
BBX 7 13 0 -2
BITMAP
00
00
7C
7C
04
08
18
30
30
30
30
00
00
ENDCHAR
STARTCHAR DIGIT EIGHT
ENCODING 56
SWIDTH 437 0
DWIDTH 7 0
BBX 7 13 0 -2
BITMAP
00
00
3C
66
66
66
3C
66
66
66
3C
00
00
ENDCHAR
STARTCHAR DIGIT NINE
ENCODING 57
SWIDTH 437 0
DWIDTH 7 0
BBX 7 13 0 -2
BITMAP
00
00
3C
66
66
66
3E
06
06
06
3C
00
00
ENDCHAR
STARTCHAR COLON
ENCODING 58
SWIDTH 437 0
DWIDTH 7 0
BBX 7 13 0 -2
BITMAP
00
00
00
00
18
18
00
00
00
18
18
00
00
ENDCHAR
STARTCHAR SEMICOLON
ENCODING 59
SWIDTH 437 0
DWIDTH 7 0
BBX 7 13 0 -2
BITMAP
00
00
00
00
18
18
00
00
00
18
10
20
00
ENDCHAR
STARTCHAR LESS-THAN SIGN
ENCODING 60
SWIDTH 437 0
DWIDTH 7 0
BBX 7 13 0 -2
BITMAP
00
00
00
00
06
1C
30
60
30
1C
06
00
00
ENDCHAR
STARTCHAR EQUALS SIGN
ENCODING 61
SWIDTH 437 0
DWIDTH 7 0
BBX 7 13 0 -2
BITMAP
00
00
00
00
00
7E
7E
00
7E
7E
00
00
00
ENDCHAR
STARTCHAR GREATER-THAN SIGN
ENCODING 62
SWIDTH 437 0
DWIDTH 7 0
BBX 7 13 0 -2
BITMAP
00
00
00
00
60
38
0C
06
0C
38
60
00
00
ENDCHAR
STARTCHAR QUESTION MARK
ENCODING 63
SWIDTH 437 0
DWIDTH 7 0
BBX 7 13 0 -2
BITMAP
00
00
3C
66
66
66
0C
18
00
18
18
00
00
ENDCHAR
STARTCHAR COMMERCIAL AT
ENCODING 64
SWIDTH 437 0
DWIDTH 7 0
BBX 7 13 0 -2
BITMAP
00
00
3C
66
5E
56
56
5E
4E
60
3C
00
00
ENDCHAR
STARTCHAR LATIN CAPITAL LETTER A
ENCODING 65
SWIDTH 437 0
DWIDTH 7 0
BBX 7 13 0 -2
BITMAP
00
00
18
18
34
34
34
3C
62
62
62
00
00
ENDCHAR
STARTCHAR LATIN CAPITAL LETTER B
ENCODING 66
SWIDTH 437 0
DWIDTH 7 0
BBX 7 13 0 -2
BITMAP
00
00
7C
66
66
66
7C
66
66
66
7C
00
00
ENDCHAR
STARTCHAR LATIN CAPITAL LETTER C
ENCODING 67
SWIDTH 437 0
DWIDTH 7 0
BBX 7 13 0 -2
BITMAP
00
00
3C
66
60
60
60
60
60
66
3C
00
00
ENDCHAR
STARTCHAR LATIN CAPITAL LETTER D
ENCODING 68
SWIDTH 437 0
DWIDTH 7 0
BBX 7 13 0 -2
BITMAP
00
00
7C
66
66
66
66
66
66
66
7C
00
00
ENDCHAR
STARTCHAR LATIN CAPITAL LETTER E
ENCODING 69
SWIDTH 437 0
DWIDTH 7 0
BBX 7 13 0 -2
BITMAP
00
00
7E
60
60
60
7C
60
60
60
7E
00
00
ENDCHAR
STARTCHAR LATIN CAPITAL LETTER F
ENCODING 70
SWIDTH 437 0
DWIDTH 7 0
BBX 7 13 0 -2
BITMAP
00
00
7E
60
60
60
7C
60
60
60
60
00
00
ENDCHAR
STARTCHAR LATIN CAPITAL LETTER G
ENCODING 71
SWIDTH 437 0
DWIDTH 7 0
BBX 7 13 0 -2
BITMAP
00
00
3C
66
60
60
6E
66
66
66
3C
00
00
ENDCHAR
STARTCHAR LATIN CAPITAL LETTER H
ENCODING 72
SWIDTH 437 0
DWIDTH 7 0
BBX 7 13 0 -2
BITMAP
00
00
66
66
66
66
7E
66
66
66
66
00
00
ENDCHAR
STARTCHAR LATIN CAPITAL LETTER I
ENCODING 73
SWIDTH 437 0
DWIDTH 7 0
BBX 7 13 0 -2
BITMAP
00
00
3C
18
18
18
18
18
18
18
3C
00
00
ENDCHAR
STARTCHAR LATIN CAPITAL LETTER J
ENCODING 74
SWIDTH 437 0
DWIDTH 7 0
BBX 7 13 0 -2
BITMAP
00
00
7C
0C
0C
0C
0C
0C
0C
0C
78
00
00
ENDCHAR
STARTCHAR LATIN CAPITAL LETTER K
ENCODING 75
SWIDTH 437 0
DWIDTH 7 0
BBX 7 13 0 -2
BITMAP
00
00
66
64
68
78
78
6C
6C
66
66
00
00
ENDCHAR
STARTCHAR LATIN CAPITAL LETTER L
ENCODING 76
SWIDTH 437 0
DWIDTH 7 0
BBX 7 13 0 -2
BITMAP
00
00
60
60
60
60
60
60
60
60
7E
00
00
ENDCHAR
STARTCHAR LATIN CAPITAL LETTER M
ENCODING 77
SWIDTH 437 0
DWIDTH 7 0
BBX 7 13 0 -2
BITMAP
00
00
66
7E
7E
66
66
66
66
66
66
00
00
ENDCHAR
STARTCHAR LATIN CAPITAL LETTER N
ENCODING 78
SWIDTH 437 0
DWIDTH 7 0
BBX 7 13 0 -2
BITMAP
00
00
62
62
72
7A
5A
5E
4E
46
46
00
00
ENDCHAR
STARTCHAR LATIN CAPITAL LETTER O
ENCODING 79
SWIDTH 437 0
DWIDTH 7 0
BBX 7 13 0 -2
BITMAP
00
00
3C
66
66
66
66
66
66
66
3C
00
00
ENDCHAR
STARTCHAR LATIN CAPITAL LETTER P
ENCODING 80
SWIDTH 437 0
DWIDTH 7 0
BBX 7 13 0 -2
BITMAP
00
00
7C
66
66
66
7C
60
60
60
60
00
00
ENDCHAR
STARTCHAR LATIN CAPITAL LETTER Q
ENCODING 81
SWIDTH 437 0
DWIDTH 7 0
BBX 7 13 0 -2
BITMAP
00
00
3C
66
66
66
66
66
66
66
3C
06
00
ENDCHAR
STARTCHAR LATIN CAPITAL LETTER R
ENCODING 82
SWIDTH 437 0
DWIDTH 7 0
BBX 7 13 0 -2
BITMAP
00
00
7C
66
66
66
7C
66
66
66
66
00
00
ENDCHAR
STARTCHAR LATIN CAPITAL LETTER S
ENCODING 83
SWIDTH 437 0
DWIDTH 7 0
BBX 7 13 0 -2
BITMAP
00
00
3C
66
60
60
3C
06
06
66
3C
00
00
ENDCHAR
STARTCHAR LATIN CAPITAL LETTER T
ENCODING 84
SWIDTH 437 0
DWIDTH 7 0
BBX 7 13 0 -2
BITMAP
00
00
7E
18
18
18
18
18
18
18
18
00
00
ENDCHAR
STARTCHAR LATIN CAPITAL LETTER U
ENCODING 85
SWIDTH 437 0
DWIDTH 7 0
BBX 7 13 0 -2
BITMAP
00
00
66
66
66
66
66
66
66
66
3C
00
00
ENDCHAR
STARTCHAR LATIN CAPITAL LETTER V
ENCODING 86
SWIDTH 437 0
DWIDTH 7 0
BBX 7 13 0 -2
BITMAP
00
00
62
62
62
34
34
34
34
18
18
00
00
ENDCHAR
STARTCHAR LATIN CAPITAL LETTER W
ENCODING 87
SWIDTH 437 0
DWIDTH 7 0
BBX 7 13 0 -2
BITMAP
00
00
66
66
66
66
66
66
7E
7E
66
00
00
ENDCHAR
STARTCHAR LATIN CAPITAL LETTER X
ENCODING 88
SWIDTH 437 0
DWIDTH 7 0
BBX 7 13 0 -2
BITMAP
00
00
66
66
66
66
3C
66
66
66
66
00
00
ENDCHAR
STARTCHAR LATIN CAPITAL LETTER Y
ENCODING 89
SWIDTH 437 0
DWIDTH 7 0
BBX 7 13 0 -2
BITMAP
00
00
62
62
34
34
3C
18
18
18
18
00
00
ENDCHAR
STARTCHAR LATIN CAPITAL LETTER Z
ENCODING 90
SWIDTH 437 0
DWIDTH 7 0
BBX 7 13 0 -2
BITMAP
00
00
7C
7C
0C
08
10
20
60
7C
7C
00
00
ENDCHAR
STARTCHAR LEFT SQUARE BRACKET
ENCODING 91
SWIDTH 437 0
DWIDTH 7 0
BBX 7 13 0 -2
BITMAP
00
3C
30
30
30
30
30
30
30
30
30
3C
00
ENDCHAR
STARTCHAR REVERSE SOLIDUS
ENCODING 92
SWIDTH 437 0
DWIDTH 7 0
BBX 7 13 0 -2
BITMAP
00
60
60
30
30
18
18
18
0C
0C
06
06
00
ENDCHAR
STARTCHAR RIGHT SQUARE BRACKET
ENCODING 93
SWIDTH 437 0
DWIDTH 7 0
BBX 7 13 0 -2
BITMAP
00
78
18
18
18
18
18
18
18
18
18
78
00
ENDCHAR
STARTCHAR CIRCUMFLEX ACCENT
ENCODING 94
SWIDTH 437 0
DWIDTH 7 0
BBX 7 13 0 -2
BITMAP
00
00
10
38
6C
00
00
00
00
00
00
00
00
ENDCHAR
STARTCHAR LOW LINE
ENCODING 95
SWIDTH 437 0
DWIDTH 7 0
BBX 7 13 0 -2
BITMAP
00
00
00
00
00
00
00
00
00
7E
7E
00
00
ENDCHAR
STARTCHAR GRAVE ACCENT
ENCODING 96
SWIDTH 437 0
DWIDTH 7 0
BBX 7 13 0 -2
BITMAP
00
00
30
10
08
00
00
00
00
00
00
00
00
ENDCHAR
STARTCHAR LATIN SMALL LETTER A
ENCODING 97
SWIDTH 437 0
DWIDTH 7 0
BBX 7 13 0 -2
BITMAP
00
00
00
00
3C
06
06
3E
66
66
3E
00
00
ENDCHAR
STARTCHAR LATIN SMALL LETTER B
ENCODING 98
SWIDTH 437 0
DWIDTH 7 0
BBX 7 13 0 -2
BITMAP
00
00
60
60
7C
66
66
66
66
66
7C
00
00
ENDCHAR
STARTCHAR LATIN SMALL LETTER C
ENCODING 99
SWIDTH 437 0
DWIDTH 7 0
BBX 7 13 0 -2
BITMAP
00
00
00
00
3C
66
60
60
60
66
3C
00
00
ENDCHAR
STARTCHAR LATIN SMALL LETTER D
ENCODING 100
SWIDTH 437 0
DWIDTH 7 0
BBX 7 13 0 -2
BITMAP
00
00
06
06
3E
66
66
66
66
66
3E
00
00
ENDCHAR
STARTCHAR LATIN SMALL LETTER E
ENCODING 101
SWIDTH 437 0
DWIDTH 7 0
BBX 7 13 0 -2
BITMAP
00
00
00
00
3C
66
66
7E
60
66
3C
00
00
ENDCHAR
STARTCHAR LATIN SMALL LETTER F
ENCODING 102
SWIDTH 437 0
DWIDTH 7 0
BBX 7 13 0 -2
BITMAP
00
00
1E
30
7C
30
30
30
30
30
30
00
00
ENDCHAR
STARTCHAR LATIN SMALL LETTER G
ENCODING 103
SWIDTH 437 0
DWIDTH 7 0
BBX 7 13 0 -2
BITMAP
00
00
00
00
3E
66
66
66
66
66
3E
06
3C
ENDCHAR
STARTCHAR LATIN SMALL LETTER H
ENCODING 104
SWIDTH 437 0
DWIDTH 7 0
BBX 7 13 0 -2
BITMAP
00
00
60
60
7C
66
66
66
66
66
66
00
00
ENDCHAR
STARTCHAR LATIN SMALL LETTER I
ENCODING 105
SWIDTH 437 0
DWIDTH 7 0
BBX 7 13 0 -2
BITMAP
00
18
18
00
38
18
18
18
18
18
18
00
00
ENDCHAR
STARTCHAR LATIN SMALL LETTER J
ENCODING 106
SWIDTH 437 0
DWIDTH 7 0
BBX 7 13 0 -2
BITMAP
00
18
18
00
38
18
18
18
18
18
18
18
70
ENDCHAR
STARTCHAR LATIN SMALL LETTER K
ENCODING 107
SWIDTH 437 0
DWIDTH 7 0
BBX 7 13 0 -2
BITMAP
00
00
60
60
66
64
68
78
6C
66
66
00
00
ENDCHAR
STARTCHAR LATIN SMALL LETTER L
ENCODING 108
SWIDTH 437 0
DWIDTH 7 0
BBX 7 13 0 -2
BITMAP
00
00
38
18
18
18
18
18
18
18
18
00
00
ENDCHAR
STARTCHAR LATIN SMALL LETTER M
ENCODING 109
SWIDTH 437 0
DWIDTH 7 0
BBX 7 13 0 -2
BITMAP
00
00
00
00
7E
7E
6A
6A
6A
6A
6A
00
00
ENDCHAR
STARTCHAR LATIN SMALL LETTER N
ENCODING 110
SWIDTH 437 0
DWIDTH 7 0
BBX 7 13 0 -2
BITMAP
00
00
00
00
7C
66
66
66
66
66
66
00
00
ENDCHAR
STARTCHAR LATIN SMALL LETTER O
ENCODING 111
SWIDTH 437 0
DWIDTH 7 0
BBX 7 13 0 -2
BITMAP
00
00
00
00
3C
66
66
66
66
66
3C
00
00
ENDCHAR
STARTCHAR LATIN SMALL LETTER P
ENCODING 112
SWIDTH 437 0
DWIDTH 7 0
BBX 7 13 0 -2
BITMAP
00
00
00
00
7C
66
66
66
66
66
7C
60
60
ENDCHAR
STARTCHAR LATIN SMALL LETTER Q
ENCODING 113
SWIDTH 437 0
DWIDTH 7 0
BBX 7 13 0 -2
BITMAP
00
00
00
00
3E
66
66
66
66
66
3E
06
06
ENDCHAR
STARTCHAR LATIN SMALL LETTER R
ENCODING 114
SWIDTH 437 0
DWIDTH 7 0
BBX 7 13 0 -2
BITMAP
00
00
00
00
6E
70
60
60
60
60
60
00
00
ENDCHAR
STARTCHAR LATIN SMALL LETTER S
ENCODING 115
SWIDTH 437 0
DWIDTH 7 0
BBX 7 13 0 -2
BITMAP
00
00
00
00
3C
66
70
3C
0E
66
3C
00
00
ENDCHAR
STARTCHAR LATIN SMALL LETTER T
ENCODING 116
SWIDTH 437 0
DWIDTH 7 0
BBX 7 13 0 -2
BITMAP
00
00
30
30
7C
30
30
30
30
30
1C
00
00
ENDCHAR
STARTCHAR LATIN SMALL LETTER U
ENCODING 117
SWIDTH 437 0
DWIDTH 7 0
BBX 7 13 0 -2
BITMAP
00
00
00
00
66
66
66
66
66
66
3E
00
00
ENDCHAR
STARTCHAR LATIN SMALL LETTER V
ENCODING 118
SWIDTH 437 0
DWIDTH 7 0
BBX 7 13 0 -2
BITMAP
00
00
00
00
62
62
34
34
34
18
18
00
00
ENDCHAR
STARTCHAR LATIN SMALL LETTER W
ENCODING 119
SWIDTH 437 0
DWIDTH 7 0
BBX 7 13 0 -2
BITMAP
00
00
00
00
66
66
66
66
7E
7E
66
00
00
ENDCHAR
STARTCHAR LATIN SMALL LETTER X
ENCODING 120
SWIDTH 437 0
DWIDTH 7 0
BBX 7 13 0 -2
BITMAP
00
00
00
00
66
66
66
3C
66
66
66
00
00
ENDCHAR
STARTCHAR LATIN SMALL LETTER Y
ENCODING 121
SWIDTH 437 0
DWIDTH 7 0
BBX 7 13 0 -2
BITMAP
00
00
00
00
66
66
66
66
66
66
3E
06
3C
ENDCHAR
STARTCHAR LATIN SMALL LETTER Z
ENCODING 122
SWIDTH 437 0
DWIDTH 7 0
BBX 7 13 0 -2
BITMAP
00
00
00
00
7C
7C
08
10
20
7C
7C
00
00
ENDCHAR
STARTCHAR LEFT CURLY BRACKET
ENCODING 123
SWIDTH 437 0
DWIDTH 7 0
BBX 7 13 0 -2
BITMAP
00
1C
30
30
30
30
E0
30
30
30
30
1C
00
ENDCHAR
STARTCHAR VERTICAL LINE
ENCODING 124
SWIDTH 437 0
DWIDTH 7 0
BBX 7 13 0 -2
BITMAP
00
18
18
18
18
18
18
18
18
18
18
18
00
ENDCHAR
STARTCHAR RIGHT CURLY BRACKET
ENCODING 125
SWIDTH 437 0
DWIDTH 7 0
BBX 7 13 0 -2
BITMAP
00
70
18
18
18
18
0E
18
18
18
18
70
00
ENDCHAR
STARTCHAR TILDE
ENCODING 126
SWIDTH 437 0
DWIDTH 7 0
BBX 7 13 0 -2
BITMAP
00
00
00
00
00
32
7E
4C
00
00
00
00
00
ENDCHAR
STARTCHAR NO-BREAK SPACE
ENCODING 160
SWIDTH 437 0
DWIDTH 7 0
BBX 7 13 0 -2
BITMAP
00
00
00
00
00
00
00
00
44
7C
7C
00
00
ENDCHAR
STARTCHAR INVERTED EXCLAMATION MARK
ENCODING 161
SWIDTH 437 0
DWIDTH 7 0
BBX 7 13 0 -2
BITMAP
00
00
18
18
00
18
18
18
18
18
18
00
00
ENDCHAR
STARTCHAR CENT SIGN
ENCODING 162
SWIDTH 437 0
DWIDTH 7 0
BBX 7 13 0 -2
BITMAP
00
00
00
08
3C
6A
68
68
68
6A
3C
08
00
ENDCHAR
STARTCHAR POUND SIGN
ENCODING 163
SWIDTH 437 0
DWIDTH 7 0
BBX 7 13 0 -2
BITMAP
00
00
1C
32
30
78
30
30
22
7E
7E
00
00
ENDCHAR
STARTCHAR CURRENCY SIGN
ENCODING 164
SWIDTH 437 0
DWIDTH 7 0
BBX 7 13 0 -2
BITMAP
00
00
00
66
7E
24
24
7E
66
00
00
00
00
ENDCHAR
STARTCHAR YEN SIGN
ENCODING 165
SWIDTH 437 0
DWIDTH 7 0
BBX 7 13 0 -2
BITMAP
00
62
62
34
34
3C
7E
18
7E
18
18
00
00
ENDCHAR
STARTCHAR BROKEN BAR
ENCODING 166
SWIDTH 437 0
DWIDTH 7 0
BBX 7 13 0 -2
BITMAP
00
18
18
18
18
00
00
00
18
18
18
18
00
ENDCHAR
STARTCHAR SECTION SIGN
ENCODING 167
SWIDTH 437 0
DWIDTH 7 0
BBX 7 13 0 -2
BITMAP
00
00
38
6C
20
70
58
6C
34
1C
08
6C
38
ENDCHAR
STARTCHAR DIAERESIS
ENCODING 168
SWIDTH 437 0
DWIDTH 7 0
BBX 7 13 0 -2
BITMAP
00
28
28
00
00
00
00
00
00
00
00
00
00
ENDCHAR
STARTCHAR COPYRIGHT SIGN
ENCODING 169
SWIDTH 437 0
DWIDTH 7 0
BBX 7 13 0 -2
BITMAP
00
00
38
44
9A
B2
A2
A2
B2
9A
44
38
00
ENDCHAR
STARTCHAR FEMININE ORDINAL INDICATOR
ENCODING 170
SWIDTH 437 0
DWIDTH 7 0
BBX 7 13 0 -2
BITMAP
38
0C
3C
6C
3C
00
7C
7C
00
00
00
00
00
ENDCHAR
STARTCHAR LEFT-POINTING DOUBLE ANGLE QUOTATION MARK
ENCODING 171
SWIDTH 437 0
DWIDTH 7 0
BBX 7 13 0 -2
BITMAP
00
00
00
00
24
48
48
6C
24
00
00
00
00
ENDCHAR
STARTCHAR NOT SIGN
ENCODING 172
SWIDTH 437 0
DWIDTH 7 0
BBX 7 13 0 -2
BITMAP
00
00
00
00
00
00
7E
7E
06
06
06
00
00
ENDCHAR
STARTCHAR SOFT HYPHEN
ENCODING 173
SWIDTH 437 0
DWIDTH 7 0
BBX 7 13 0 -2
BITMAP
00
00
00
00
00
00
7C
7C
00
00
00
00
00
ENDCHAR
STARTCHAR REGISTERED SIGN
ENCODING 174
SWIDTH 437 0
DWIDTH 7 0
BBX 7 13 0 -2
BITMAP
00
00
38
44
B2
BA
AA
B2
BA
AA
44
38
00
ENDCHAR
STARTCHAR MACRON
ENCODING 175
SWIDTH 437 0
DWIDTH 7 0
BBX 7 13 0 -2
BITMAP
00
7C
7C
00
00
00
00
00
00
00
00
00
00
ENDCHAR
STARTCHAR DEGREE SIGN
ENCODING 176
SWIDTH 437 0
DWIDTH 7 0
BBX 7 13 0 -2
BITMAP
00
38
6C
6C
38
00
00
00
00
00
00
00
00
ENDCHAR
STARTCHAR PLUS-MINUS SIGN
ENCODING 177
SWIDTH 437 0
DWIDTH 7 0
BBX 7 13 0 -2
BITMAP
00
00
00
18
18
7E
7E
18
18
7E
7E
00
00
ENDCHAR
STARTCHAR SUPERSCRIPT TWO
ENCODING 178
SWIDTH 437 0
DWIDTH 7 0
BBX 7 13 0 -2
BITMAP
00
38
2C
0C
08
10
3C
3C
00
00
00
00
00
ENDCHAR
STARTCHAR SUPERSCRIPT THREE
ENCODING 179
SWIDTH 437 0
DWIDTH 7 0
BBX 7 13 0 -2
BITMAP
00
18
2C
0C
18
0C
2C
18
00
00
00
00
00
ENDCHAR
STARTCHAR ACUTE ACCENT
ENCODING 180
SWIDTH 437 0
DWIDTH 7 0
BBX 7 13 0 -2
BITMAP
00
00
18
10
20
00
00
00
00
00
00
00
00
ENDCHAR
STARTCHAR MICRO SIGN
ENCODING 181
SWIDTH 437 0
DWIDTH 7 0
BBX 7 13 0 -2
BITMAP
00
00
00
66
66
66
66
66
66
6E
76
66
60
ENDCHAR
STARTCHAR PILCROW SIGN
ENCODING 182
SWIDTH 437 0
DWIDTH 7 0
BBX 7 13 0 -2
BITMAP
00
3E
76
76
76
76
36
16
16
16
16
00
00
ENDCHAR
STARTCHAR MIDDLE DOT
ENCODING 183
SWIDTH 437 0
DWIDTH 7 0
BBX 7 13 0 -2
BITMAP
00
00
00
00
00
00
18
18
00
00
00
00
00
ENDCHAR
STARTCHAR CEDILLA
ENCODING 184
SWIDTH 437 0
DWIDTH 7 0
BBX 7 13 0 -2
BITMAP
00
00
00
00
00
00
00
00
00
00
00
18
30
ENDCHAR
STARTCHAR SUPERSCRIPT ONE
ENCODING 185
SWIDTH 437 0
DWIDTH 7 0
BBX 7 13 0 -2
BITMAP
00
18
38
58
18
18
18
18
00
00
00
00
00
ENDCHAR
STARTCHAR MASCULINE ORDINAL INDICATOR
ENCODING 186
SWIDTH 437 0
DWIDTH 7 0
BBX 7 13 0 -2
BITMAP
00
38
6C
6C
38
00
7C
7C
00
00
00
00
00
ENDCHAR
STARTCHAR RIGHT-POINTING DOUBLE ANGLE QUOTATION MARK
ENCODING 187
SWIDTH 437 0
DWIDTH 7 0
BBX 7 13 0 -2
BITMAP
00
00
00
00
00
48
24
6C
48
00
00
00
00
ENDCHAR
STARTCHAR VULGAR FRACTION ONE QUARTER
ENCODING 188
SWIDTH 437 0
DWIDTH 7 0
BBX 7 13 0 -2
BITMAP
00
60
E2
66
6C
78
30
6C
DC
AC
3E
0C
0C
ENDCHAR
STARTCHAR VULGAR FRACTION ONE HALF
ENCODING 189
SWIDTH 437 0
DWIDTH 7 0
BBX 7 13 0 -2
BITMAP
00
60
E2
66
6C
78
30
6C
DE
86
04
0E
1E
ENDCHAR
STARTCHAR VULGAR FRACTION THREE QUARTERS
ENCODING 190
SWIDTH 437 0
DWIDTH 7 0
BBX 7 13 0 -2
BITMAP
E0
30
62
36
EC
18
30
6C
DC
AC
3E
0C
0C
ENDCHAR
STARTCHAR INVERTED QUESTION MARK
ENCODING 191
SWIDTH 437 0
DWIDTH 7 0
BBX 7 13 0 -2
BITMAP
00
00
30
30
00
30
60
CC
CC
CC
78
00
00
ENDCHAR
STARTCHAR LATIN CAPITAL LETTER A WITH GRAVE
ENCODING 192
SWIDTH 437 0
DWIDTH 7 0
BBX 7 13 0 -2
BITMAP
10
08
00
18
18
34
34
3C
62
62
62
00
00
ENDCHAR
STARTCHAR LATIN CAPITAL LETTER A WITH ACUTE
ENCODING 193
SWIDTH 437 0
DWIDTH 7 0
BBX 7 13 0 -2
BITMAP
08
10
00
18
18
34
34
3C
62
62
62
00
00
ENDCHAR
STARTCHAR LATIN CAPITAL LETTER A WITH CIRCUMFLEX
ENCODING 194
SWIDTH 437 0
DWIDTH 7 0
BBX 7 13 0 -2
BITMAP
18
34
00
18
18
34
34
3C
62
62
62
00
00
ENDCHAR
STARTCHAR LATIN CAPITAL LETTER A WITH TILDE
ENCODING 195
SWIDTH 437 0
DWIDTH 7 0
BBX 7 13 0 -2
BITMAP
14
28
00
18
18
34
34
3C
62
62
62
00
00
ENDCHAR
STARTCHAR LATIN CAPITAL LETTER A WITH DIAERESIS
ENCODING 196
SWIDTH 437 0
DWIDTH 7 0
BBX 7 13 0 -2
BITMAP
24
24
00
18
18
34
34
3C
62
62
62
00
00
ENDCHAR
STARTCHAR LATIN CAPITAL LETTER A WITH RING ABOVE
ENCODING 197
SWIDTH 437 0
DWIDTH 7 0
BBX 7 13 0 -2
BITMAP
18
24
24
18
18
34
34
3C
62
62
62
00
00
ENDCHAR
STARTCHAR LATIN CAPITAL LETTER AE
ENCODING 198
SWIDTH 437 0
DWIDTH 7 0
BBX 7 13 0 -2
BITMAP
00
00
0E
1C
1C
2C
2E
3C
4C
4C
4E
00
00
ENDCHAR
STARTCHAR LATIN CAPITAL LETTER C WITH CEDILLA
ENCODING 199
SWIDTH 437 0
DWIDTH 7 0
BBX 7 13 0 -2
BITMAP
00
3C
66
60
60
60
60
60
60
66
3C
18
30
ENDCHAR
STARTCHAR LATIN CAPITAL LETTER E WITH GRAVE
ENCODING 200
SWIDTH 437 0
DWIDTH 7 0
BBX 7 13 0 -2
BITMAP
10
08
00
7E
60
60
78
60
60
60
7E
00
00
ENDCHAR
STARTCHAR LATIN CAPITAL LETTER E WITH ACUTE
ENCODING 201
SWIDTH 437 0
DWIDTH 7 0
BBX 7 13 0 -2
BITMAP
08
10
00
7E
60
60
78
60
60
60
7E
00
00
ENDCHAR
STARTCHAR LATIN CAPITAL LETTER E WITH CIRCUMFLEX
ENCODING 202
SWIDTH 437 0
DWIDTH 7 0
BBX 7 13 0 -2
BITMAP
18
34
00
7E
60
60
78
60
60
60
7E
00
00
ENDCHAR
STARTCHAR LATIN CAPITAL LETTER E WITH DIAERESIS
ENCODING 203
SWIDTH 437 0
DWIDTH 7 0
BBX 7 13 0 -2
BITMAP
14
14
00
7E
60
60
78
60
60
60
7E
00
00
ENDCHAR
STARTCHAR LATIN CAPITAL LETTER I WITH GRAVE
ENCODING 204
SWIDTH 437 0
DWIDTH 7 0
BBX 7 13 0 -2
BITMAP
10
08
00
3C
18
18
18
18
18
18
3C
00
00
ENDCHAR
STARTCHAR LATIN CAPITAL LETTER I WITH ACUTE
ENCODING 205
SWIDTH 437 0
DWIDTH 7 0
BBX 7 13 0 -2
BITMAP
08
10
00
3C
18
18
18
18
18
18
3C
00
00
ENDCHAR
STARTCHAR LATIN CAPITAL LETTER I WITH CIRCUMFLEX
ENCODING 206
SWIDTH 437 0
DWIDTH 7 0
BBX 7 13 0 -2
BITMAP
18
34
00
3C
18
18
18
18
18
18
3C
00
00
ENDCHAR
STARTCHAR LATIN CAPITAL LETTER I WITH DIAERESIS
ENCODING 207
SWIDTH 437 0
DWIDTH 7 0
BBX 7 13 0 -2
BITMAP
24
24
00
3C
18
18
18
18
18
18
3C
00
00
ENDCHAR
STARTCHAR LATIN CAPITAL LETTER ETH
ENCODING 208
SWIDTH 437 0
DWIDTH 7 0
BBX 7 13 0 -2
BITMAP
00
00
78
6C
66
66
F6
66
66
6C
78
00
00
ENDCHAR
STARTCHAR LATIN CAPITAL LETTER N WITH TILDE
ENCODING 209
SWIDTH 437 0
DWIDTH 7 0
BBX 7 13 0 -2
BITMAP
14
28
00
62
72
72
5A
5A
4E
4E
46
00
00
ENDCHAR
STARTCHAR LATIN CAPITAL LETTER O WITH GRAVE
ENCODING 210
SWIDTH 437 0
DWIDTH 7 0
BBX 7 13 0 -2
BITMAP
10
08
00
3C
66
66
66
66
66
66
3C
00
00
ENDCHAR
STARTCHAR LATIN CAPITAL LETTER O WITH ACUTE
ENCODING 211
SWIDTH 437 0
DWIDTH 7 0
BBX 7 13 0 -2
BITMAP
08
10
00
3C
66
66
66
66
66
66
3C
00
00
ENDCHAR
STARTCHAR LATIN CAPITAL LETTER O WITH CIRCUMFLEX
ENCODING 212
SWIDTH 437 0
DWIDTH 7 0
BBX 7 13 0 -2
BITMAP
18
34
00
3C
66
66
66
66
66
66
3C
00
00
ENDCHAR
STARTCHAR LATIN CAPITAL LETTER O WITH TILDE
ENCODING 213
SWIDTH 437 0
DWIDTH 7 0
BBX 7 13 0 -2
BITMAP
14
28
00
3C
66
66
66
66
66
66
3C
00
00
ENDCHAR
STARTCHAR LATIN CAPITAL LETTER O WITH DIAERESIS
ENCODING 214
SWIDTH 437 0
DWIDTH 7 0
BBX 7 13 0 -2
BITMAP
24
24
00
3C
66
66
66
66
66
66
3C
00
00
ENDCHAR
STARTCHAR MULTIPLICATION SIGN
ENCODING 215
SWIDTH 437 0
DWIDTH 7 0
BBX 7 13 0 -2
BITMAP
00
00
00
00
6C
7C
38
7C
6C
00
00
00
00
ENDCHAR
STARTCHAR LATIN CAPITAL LETTER O WITH STROKE
ENCODING 216
SWIDTH 437 0
DWIDTH 7 0
BBX 7 13 0 -2
BITMAP
00
02
3C
66
66
6E
7E
76
66
66
BC
00
00
ENDCHAR
STARTCHAR LATIN CAPITAL LETTER U WITH GRAVE
ENCODING 217
SWIDTH 437 0
DWIDTH 7 0
BBX 7 13 0 -2
BITMAP
10
08
00
66
66
66
66
66
66
66
3E
00
00
ENDCHAR
STARTCHAR LATIN CAPITAL LETTER U WITH ACUTE
ENCODING 218
SWIDTH 437 0
DWIDTH 7 0
BBX 7 13 0 -2
BITMAP
10
08
00
66
66
66
66
66
66
66
3E
00
00
ENDCHAR
STARTCHAR LATIN CAPITAL LETTER U WITH CIRCUMFLEX
ENCODING 219
SWIDTH 437 0
DWIDTH 7 0
BBX 7 13 0 -2
BITMAP
18
34
00
66
66
66
66
66
66
66
3E
00
00
ENDCHAR
STARTCHAR LATIN CAPITAL LETTER U WITH DIAERESIS
ENCODING 220
SWIDTH 437 0
DWIDTH 7 0
BBX 7 13 0 -2
BITMAP
24
24
00
66
66
66
66
66
66
66
3E
00
00
ENDCHAR
STARTCHAR LATIN CAPITAL LETTER Y WITH ACUTE
ENCODING 221
SWIDTH 437 0
DWIDTH 7 0
BBX 7 13 0 -2
BITMAP
08
10
00
62
62
34
3C
18
18
18
18
00
00
ENDCHAR
STARTCHAR LATIN CAPITAL LETTER THORN
ENCODING 222
SWIDTH 437 0
DWIDTH 7 0
BBX 7 13 0 -2
BITMAP
00
00
60
60
7C
66
66
66
66
7C
60
60
00
ENDCHAR
STARTCHAR LATIN SMALL LETTER SHARP S
ENCODING 223
SWIDTH 437 0
DWIDTH 7 0
BBX 7 13 0 -2
BITMAP
00
00
38
6C
6C
68
6C
66
66
66
6C
00
00
ENDCHAR
STARTCHAR LATIN SMALL LETTER A WITH GRAVE
ENCODING 224
SWIDTH 437 0
DWIDTH 7 0
BBX 7 13 0 -2
BITMAP
30
10
08
00
3C
06
06
3E
66
66
3E
00
00
ENDCHAR
STARTCHAR LATIN SMALL LETTER A WITH ACUTE
ENCODING 225
SWIDTH 437 0
DWIDTH 7 0
BBX 7 13 0 -2
BITMAP
0C
08
10
00
3C
06
06
3E
66
66
3E
00
00
ENDCHAR
STARTCHAR LATIN SMALL LETTER A WITH CIRCUMFLEX
ENCODING 226
SWIDTH 437 0
DWIDTH 7 0
BBX 7 13 0 -2
BITMAP
00
18
34
00
3C
06
06
3E
66
66
3E
00
00
ENDCHAR
STARTCHAR LATIN SMALL LETTER A WITH TILDE
ENCODING 227
SWIDTH 437 0
DWIDTH 7 0
BBX 7 13 0 -2
BITMAP
00
14
28
00
3C
06
06
3E
66
66
3E
00
00
ENDCHAR
STARTCHAR LATIN SMALL LETTER A WITH DIAERESIS
ENCODING 228
SWIDTH 437 0
DWIDTH 7 0
BBX 7 13 0 -2
BITMAP
00
24
24
00
3C
06
06
3E
66
66
3E
00
00
ENDCHAR
STARTCHAR LATIN SMALL LETTER A WITH RING ABOVE
ENCODING 229
SWIDTH 437 0
DWIDTH 7 0
BBX 7 13 0 -2
BITMAP
08
14
08
00
3C
06
06
3E
66
66
3E
00
00
ENDCHAR
STARTCHAR LATIN SMALL LETTER AE
ENCODING 230
SWIDTH 437 0
DWIDTH 7 0
BBX 7 13 0 -2
BITMAP
00
00
00
00
6C
72
12
7C
90
9C
6C
00
00
ENDCHAR
STARTCHAR LATIN SMALL LETTER C WITH CEDILLA
ENCODING 231
SWIDTH 437 0
DWIDTH 7 0
BBX 7 13 0 -2
BITMAP
00
00
00
00
3C
66
60
60
60
66
3C
18
30
ENDCHAR
STARTCHAR LATIN SMALL LETTER E WITH GRAVE
ENCODING 232
SWIDTH 437 0
DWIDTH 7 0
BBX 7 13 0 -2
BITMAP
30
10
08
00
3C
66
66
7E
60
66
3C
00
00
ENDCHAR
STARTCHAR LATIN SMALL LETTER E WITH ACUTE
ENCODING 233
SWIDTH 437 0
DWIDTH 7 0
BBX 7 13 0 -2
BITMAP
0C
08
10
00
3C
66
66
7E
60
66
3C
00
00
ENDCHAR
STARTCHAR LATIN SMALL LETTER E WITH CIRCUMFLEX
ENCODING 234
SWIDTH 437 0
DWIDTH 7 0
BBX 7 13 0 -2
BITMAP
00
18
34
00
3C
66
66
7E
60
66
3C
00
00
ENDCHAR
STARTCHAR LATIN SMALL LETTER E WITH DIAERESIS
ENCODING 235
SWIDTH 437 0
DWIDTH 7 0
BBX 7 13 0 -2
BITMAP
00
24
24
00
3C
66
66
7E
60
66
3C
00
00
ENDCHAR
STARTCHAR LATIN SMALL LETTER I WITH GRAVE
ENCODING 236
SWIDTH 437 0
DWIDTH 7 0
BBX 7 13 0 -2
BITMAP
30
10
08
00
38
18
18
18
18
18
18
00
00
ENDCHAR
STARTCHAR LATIN SMALL LETTER I WITH ACUTE
ENCODING 237
SWIDTH 437 0
DWIDTH 7 0
BBX 7 13 0 -2
BITMAP
0C
08
10
00
38
18
18
18
18
18
18
00
00
ENDCHAR
STARTCHAR LATIN SMALL LETTER I WITH CIRCUMFLEX
ENCODING 238
SWIDTH 437 0
DWIDTH 7 0
BBX 7 13 0 -2
BITMAP
00
18
34
00
38
18
18
18
18
18
18
00
00
ENDCHAR
STARTCHAR LATIN SMALL LETTER I WITH DIAERESIS
ENCODING 239
SWIDTH 437 0
DWIDTH 7 0
BBX 7 13 0 -2
BITMAP
00
24
24
00
38
18
18
18
18
18
18
00
00
ENDCHAR
STARTCHAR LATIN SMALL LETTER ETH
ENCODING 240
SWIDTH 437 0
DWIDTH 7 0
BBX 7 13 0 -2
BITMAP
00
6C
38
68
18
3C
66
66
66
66
3C
00
00
ENDCHAR
STARTCHAR LATIN SMALL LETTER N WITH TILDE
ENCODING 241
SWIDTH 437 0
DWIDTH 7 0
BBX 7 13 0 -2
BITMAP
00
14
28
00
7C
66
66
66
66
66
66
00
00
ENDCHAR
STARTCHAR LATIN SMALL LETTER O WITH GRAVE
ENCODING 242
SWIDTH 437 0
DWIDTH 7 0
BBX 7 13 0 -2
BITMAP
30
10
08
00
3C
66
66
66
66
66
3C
00
00
ENDCHAR
STARTCHAR LATIN SMALL LETTER O WITH ACUTE
ENCODING 243
SWIDTH 437 0
DWIDTH 7 0
BBX 7 13 0 -2
BITMAP
0C
08
10
00
3C
66
66
66
66
66
3C
00
00
ENDCHAR
STARTCHAR LATIN SMALL LETTER O WITH CIRCUMFLEX
ENCODING 244
SWIDTH 437 0
DWIDTH 7 0
BBX 7 13 0 -2
BITMAP
00
18
34
00
3C
66
66
66
66
66
3C
00
00
ENDCHAR
STARTCHAR LATIN SMALL LETTER O WITH TILDE
ENCODING 245
SWIDTH 437 0
DWIDTH 7 0
BBX 7 13 0 -2
BITMAP
00
14
28
00
3C
66
66
66
66
66
3C
00
00
ENDCHAR
STARTCHAR LATIN SMALL LETTER O WITH DIAERESIS
ENCODING 246
SWIDTH 437 0
DWIDTH 7 0
BBX 7 13 0 -2
BITMAP
00
24
24
00
3C
66
66
66
66
66
3C
00
00
ENDCHAR
STARTCHAR DIVISION SIGN
ENCODING 247
SWIDTH 437 0
DWIDTH 7 0
BBX 7 13 0 -2
BITMAP
00
00
18
18
00
7E
7E
00
18
18
00
00
00
ENDCHAR
STARTCHAR LATIN SMALL LETTER O WITH STROKE
ENCODING 248
SWIDTH 437 0
DWIDTH 7 0
BBX 7 13 0 -2
BITMAP
00
00
00
02
3C
66
6E
76
66
66
BC
00
00
ENDCHAR
STARTCHAR LATIN SMALL LETTER U WITH GRAVE
ENCODING 249
SWIDTH 437 0
DWIDTH 7 0
BBX 7 13 0 -2
BITMAP
30
10
08
00
66
66
66
66
66
66
3E
00
00
ENDCHAR
STARTCHAR LATIN SMALL LETTER U WITH ACUTE
ENCODING 250
SWIDTH 437 0
DWIDTH 7 0
BBX 7 13 0 -2
BITMAP
0C
08
10
00
66
66
66
66
66
66
3E
00
00
ENDCHAR
STARTCHAR LATIN SMALL LETTER U WITH CIRCUMFLEX
ENCODING 251
SWIDTH 437 0
DWIDTH 7 0
BBX 7 13 0 -2
BITMAP
00
18
34
00
66
66
66
66
66
66
3E
00
00
ENDCHAR
STARTCHAR LATIN SMALL LETTER U WITH DIAERESIS
ENCODING 252
SWIDTH 437 0
DWIDTH 7 0
BBX 7 13 0 -2
BITMAP
00
24
24
00
66
66
66
66
66
66
3E
00
00
ENDCHAR
STARTCHAR LATIN SMALL LETTER Y WITH ACUTE
ENCODING 253
SWIDTH 437 0
DWIDTH 7 0
BBX 7 13 0 -2
BITMAP
0C
08
10
00
66
66
66
66
66
66
3E
06
3C
ENDCHAR
STARTCHAR LATIN SMALL LETTER THORN
ENCODING 254
SWIDTH 437 0
DWIDTH 7 0
BBX 7 13 0 -2
BITMAP
00
60
60
7C
66
66
66
66
66
66
7C
60
60
ENDCHAR
STARTCHAR LATIN SMALL LETTER Y WITH DIAERESIS
ENCODING 255
SWIDTH 437 0
DWIDTH 7 0
BBX 7 13 0 -2
BITMAP
00
24
24
00
66
66
66
66
66
66
3E
06
3C
ENDCHAR
ENDFONT
